<?xml version="1.0" encoding="UTF-8" standalone="no"?><!-- Generator: Gravit.io -->
<svg xmlns="http://www.w3.org/2000/svg" xmlns:xlink="http://www.w3.org/1999/xlink" style="isolation:isolate"
	 viewBox="0 0 512 512" width="512pt" height="512pt">
	<defs>
		<clipPath id="_clipPath_iuFCisXYK0xn17yCYo7hjZhFZ5FvvPSk">
			<rect width="512" height="512"/>
		</clipPath>
	</defs>
	<g clip-path="url(#_clipPath_iuFCisXYK0xn17yCYo7hjZhFZ5FvvPSk)">
		<g>
			<path
				d=" M 293.162 356.293 L 286.933 365.43 L 286.225 366.421 C 277.943 367.909 268.458 370.813 262.583 373.929 L 245.099 373.929 C 239.861 371.167 231.792 368.546 224.218 366.988 L 224.147 366.917 L 218.768 358.63 L 216.29 354.806 L 238.092 264.995 C 243.825 266.199 249.842 266.908 255.929 266.908 C 259.893 266.908 263.786 266.624 267.609 266.128 L 293.162 356.293 L 293.162 356.293 Z  M 252.673 213.361 C 253.593 211.945 254.726 210.599 256 209.253 C 257.274 210.599 258.407 212.016 259.327 213.361 C 272.28 174.831 307.602 154.999 332.235 145.579 C 347.028 139.912 358 138 358 138 L 154 138 L 154.071 138 C 155.062 138.142 165.609 140.196 179.695 145.508 C 204.328 154.999 239.79 174.76 252.673 213.361 L 252.673 213.361 Z "
				fill="rgb(182,220,254)"/>
			<path
				d=" M 256 209.253 L 256 250.83 C 256 250.83 240.498 231.493 252.673 213.361 C 253.593 212.016 254.726 210.599 256 209.253 Z "
				fill="rgb(70,130,200)"/>
			<path
				d=" M 216.361 354.806 L 218.838 358.63 C 201.425 332.778 172.333 279.727 197.037 242.968 C 208.221 253.804 222.378 261.666 238.162 264.995 L 216.361 354.806 L 216.361 354.806 Z  M 293.162 356.293 L 286.933 365.43 C 302.788 343.473 340.092 284.19 314.043 243.818 C 301.585 255.646 285.446 263.649 267.609 266.128 L 293.162 356.293 Z  M 245.17 373.929 L 230.022 373.929 L 230.093 374 L 280.421 374 L 280.491 373.929 L 245.17 373.929 L 245.17 373.929 Z  M 358 138.071 C 358 138.071 347.028 139.983 332.235 145.649 C 334.57 150.395 336.411 155.424 337.756 160.665 C 350.214 157.832 358 138.071 358 138.071 L 358 138.071 Z  M 154.071 138.071 C 154.212 138.425 161.928 157.761 174.173 160.594 C 175.518 155.353 177.359 150.324 179.624 145.579 C 165.609 140.267 155.062 138.283 154.071 138.071 L 154.071 138.071 Z  M 256 250.83 C 256 250.83 271.573 231.493 259.327 213.361 C 258.407 211.945 257.274 210.599 256 209.253 L 256 250.83 Z  M 218.13 182.197 C 214.514 182.197 211.173 184.127 209.364 187.261 C 207.556 190.395 207.556 194.256 209.364 197.39 C 211.173 200.523 214.514 202.454 218.13 202.454 C 223.721 202.454 228.253 197.919 228.253 192.325 C 228.253 186.732 223.721 182.197 218.13 182.197 L 218.13 182.197 Z  M 296.135 182.197 C 292.518 182.197 289.177 184.127 287.369 187.261 C 285.56 190.395 285.56 194.256 287.369 197.39 C 289.177 200.523 292.518 202.454 296.135 202.454 C 301.725 202.454 306.257 197.919 306.257 192.325 C 306.257 186.732 301.725 182.197 296.135 182.197 L 296.135 182.197 Z "
				fill="rgb(71,136,199)"/>
			<path
				d=" M 259.327 213.361 C 271.573 231.423 256 250.83 256 250.83 C 256 250.83 240.498 231.493 252.673 213.361 C 239.79 174.76 204.328 154.999 179.695 145.579 C 177.43 150.324 175.589 155.353 174.244 160.594 C 172.404 167.465 171.484 174.76 171.484 182.268 C 171.484 206.066 181.323 227.598 197.108 242.968 C 208.291 253.804 222.448 261.666 238.233 264.995 C 243.967 266.199 249.983 266.908 256.071 266.908 C 260.035 266.908 263.928 266.624 267.75 266.128 C 285.588 263.649 301.656 255.646 314.185 243.818 C 330.536 228.377 340.729 206.491 340.729 182.268 C 340.729 174.76 339.738 167.535 337.968 160.665 C 336.623 155.424 334.712 150.395 332.447 145.649 C 307.602 155.07 272.28 174.831 259.327 213.361 L 259.327 213.361 Z  M 218.13 202.454 C 214.514 202.454 211.173 200.523 209.364 197.39 C 207.556 194.256 207.556 190.395 209.364 187.261 C 211.173 184.127 214.514 182.197 218.13 182.197 C 223.721 182.197 228.253 186.732 228.253 192.325 C 228.253 197.919 223.721 202.454 218.13 202.454 L 218.13 202.454 Z  M 296.135 202.454 C 292.518 202.454 289.177 200.523 287.369 197.39 C 285.56 194.256 285.56 190.395 287.369 187.261 C 289.177 184.127 292.518 182.197 296.135 182.197 C 301.725 182.197 306.257 186.732 306.257 192.325 C 306.257 197.919 301.725 202.454 296.135 202.454 L 296.135 202.454 Z  M 230.093 373.929 L 203.266 373.929 C 203.266 373.929 202.275 365.359 211.335 365.359 C 214.874 365.359 219.475 365.996 224.289 366.988 C 231.863 368.546 239.932 371.167 245.17 373.929 L 230.093 373.929 Z  M 262.654 373.929 C 268.529 370.813 277.943 367.909 286.296 366.421 C 290.118 365.713 293.657 365.359 296.489 365.359 C 305.549 365.359 304.558 373.929 304.558 373.929 L 262.654 373.929 Z "
				fill="rgb(223,240,254)"/>
		</g>
		<g style="opacity:0.8;">
			<g>
				<path
					d=" M 313.441 193 C 313.441 202.356 305.856 209.941 296.5 209.941 C 287.144 209.941 279.559 202.356 279.559 193 C 279.559 183.644 287.144 176.059 296.5 176.059 C 305.856 176.059 313.441 183.644 313.441 193 Z "
					fill="rgb(223,240,254)"/>
				<path
					d=" M 296.5 177.118 C 305.261 177.118 312.382 184.239 312.382 193 C 312.382 201.761 305.261 208.882 296.5 208.882 C 287.732 208.874 280.626 201.768 280.618 193 C 280.618 184.239 287.739 177.118 296.5 177.118 Z  M 296.5 175 C 291.726 174.999 287.147 176.896 283.771 180.271 C 280.396 183.647 278.499 188.226 278.5 193 C 278.5 202.942 286.558 211 296.5 211 C 306.442 211 314.5 202.942 314.5 193 C 314.5 183.058 306.442 175 296.5 175 Z "
					fill="rgb(71,136,199)"/>
				<mask id="_mask_tBNNt2Pkuh8RsHVA78rCjRhU128pwHXl" x="-200%" y="-200%" width="400%" height="400%">
					<rect x="-200%" y="-200%" width="400%" height="400%" style="fill:white;"/>
					<path d=" M 289.088 194.059 C 289.088 189.379 292.879 185.588 297.559 185.588" fill="black"
						  stroke="none"/>
				</mask>
				<path d=" M 289.088 194.059 C 289.088 189.379 292.879 185.588 297.559 185.588" fill="none"
					  mask="url(#_mask_tBNNt2Pkuh8RsHVA78rCjRhU128pwHXl)" vector-effect="non-scaling-stroke"
					  stroke-width="4" stroke="rgb(255,255,255)" stroke-linejoin="miter" stroke-linecap="round"
					  stroke-miterlimit="10"/>
				<path d=" M 289.088 194.059 C 289.088 189.379 292.879 185.588 297.559 185.588" fill="none"/>
			</g>
			<g>
				<path
					d=" M 235.941 193 C 235.941 202.356 228.356 209.941 219 209.941 C 209.644 209.941 202.059 202.356 202.059 193 C 202.059 183.644 209.644 176.059 219 176.059 C 228.356 176.059 235.941 183.644 235.941 193 Z "
					fill="rgb(223,240,254)"/>
				<path
					d=" M 219 177.118 C 227.761 177.118 234.882 184.239 234.882 193 C 234.882 201.761 227.761 208.882 219 208.882 C 210.232 208.874 203.126 201.768 203.118 193 C 203.118 184.239 210.239 177.118 219 177.118 Z  M 219 175 C 214.226 174.999 209.647 176.896 206.271 180.271 C 202.896 183.647 200.999 188.226 201 193 C 201 202.942 209.058 211 219 211 C 228.942 211 237 202.942 237 193 C 237 183.058 228.942 175 219 175 Z "
					fill="rgb(71,136,199)"/>
				<mask id="_mask_xTJtK5WI9K2wA1dAMF22YpJds1DfBRa8" x="-200%" y="-200%" width="400%" height="400%">
					<rect x="-200%" y="-200%" width="400%" height="400%" style="fill:white;"/>
					<path d=" M 211.588 194.059 C 211.588 189.379 215.379 185.588 220.059 185.588" fill="black"
						  stroke="none"/>
				</mask>
				<path d=" M 211.588 194.059 C 211.588 189.379 215.379 185.588 220.059 185.588" fill="none"
					  mask="url(#_mask_xTJtK5WI9K2wA1dAMF22YpJds1DfBRa8)" vector-effect="non-scaling-stroke"
					  stroke-width="4" stroke="rgb(255,255,255)" stroke-linejoin="miter" stroke-linecap="round"
					  stroke-miterlimit="10"/>
				<path d=" M 211.588 194.059 C 211.588 189.379 215.379 185.588 220.059 185.588" fill="none"/>
			</g>
		</g>
		<path
			d=" M 233 183 Q 241.12 178.276 256 178 Q 270.88 177.724 282 183 L 281 185 Q 271.775 180.048 256 180 Q 240.225 179.952 234 185 L 233 183 Z "
			fill="rgb(101,157,210)" vector-effect="non-scaling-stroke" stroke-width="1" stroke="rgb(101,157,210)"
			stroke-linejoin="miter" stroke-linecap="square" stroke-miterlimit="3"/>
	</g>
</svg>
